<?xml version="1.0" encoding="utf-8"?>
<!-- Generator: Adobe Illustrator 19.0.0, SVG Export Plug-In . SVG Version: 6.00 Build 0)  -->
<svg version="1.1" id="Capa_1" xmlns="http://www.w3.org/2000/svg" xmlns:xlink="http://www.w3.org/1999/xlink" x="0px" y="0px"
	 viewBox="0 0 357.6 175.1" style="enable-background:new 0 0 357.6 175.1;" xml:space="preserve">
<style type="text/css">
	.st0{fill:#5C3178;}
</style>
<path id="XMLID_64_" class="st0" d="M81.5,26.2c-3.6,0-6.9,1-9.9,2.6l-7-9.8l2.8-9.4c2.5,0.6,5.1,0.9,5.1-1.4c0-2.9-1.3-2.9-7.1-2.3
	c-5.8,0.6-7.6,0.8-7.6,2c-0.1,1.8,3.3,0.8,6,0.9l-2.6,8.6H31.8l1.1-5.2c0-0.1,0-0.2,0-0.4c0,0,0,0,0,0c0-0.1,0-0.2,0-0.4
	c0,0,0-0.1,0-0.1c0-0.1,0-0.2-0.1-0.2c0-0.1-0.1-0.1-0.1-0.2c0,0,0-0.1-0.1-0.1c0,0-0.1-0.1-0.1-0.1c0,0-0.1-0.1-0.1-0.1
	c0,0-0.1-0.1-0.1-0.1c0,0-0.1-0.1-0.1-0.1c-0.1-0.1-0.2-0.1-0.2-0.1c0,0,0,0-0.1,0c-0.2-0.1-0.5-0.1-0.7-0.1h-9.5
	c-1,0-1.8,0.8-1.8,1.8s0.8,1.8,1.8,1.8h7.2L27.7,19c0,0,0,0,0,0L26,27.3c-2-0.7-4.1-1-6.3-1C8.9,26.2,0,35.1,0,46
	s8.9,19.7,19.7,19.7S39.5,56.8,39.5,46c0-7.3-4-13.8-10-17.2l0.3-1.5L47.3,46c-0.7,1-1.1,2.2-1.1,3.5c0,3.5,2.8,6.3,6.2,6.4l0.7,3.2
	h-2.1c-0.6,0-1.1,0.5-1.1,1.1s0.5,1.1,1.1,1.1h6.7c0.6,0,1.1-0.5,1.1-1.1s-0.5-1.1-1.1-1.1h-2.4l-0.8-3.6c2.1-0.7,3.8-2.6,4.2-4.8
	l3.4-0.4c2,8.8,9.9,15.4,19.3,15.4c10.9,0,19.7-8.9,19.7-19.7S92.4,26.2,81.5,26.2z M35.8,46c0,8.9-7.2,16.1-16.1,16.1
	S3.7,54.8,3.7,46s7.2-16.1,16.1-16.1c2,0,3.8,0.4,5.6,1l-0.7,3.4L22,38.7c-0.7-0.2-1.5-0.3-2.2-0.3c-4.2,0-7.6,3.4-7.6,7.6
	s3.4,7.6,7.6,7.6s7.6-3.4,7.6-7.6c0-2.1-0.9-4-2.2-5.4l2.8-4.7c0,0,0,0,0,0l0,0c0,0,0,0,0,0c0-0.1,0.1-0.2,0.1-0.3c0,0,0-0.1,0-0.1
	c0,0,0-0.1,0-0.1l0.5-2.7C33,35.5,35.8,40.4,35.8,46z M18.8,47.5c0.3,0.2,0.6,0.3,0.9,0.3c0.6,0,1.2-0.3,1.6-0.9l2.6-4.4
	c0.8,0.9,1.2,2.1,1.2,3.4c0,3-2.4,5.4-5.4,5.4s-5.4-2.4-5.4-5.4s2.4-5.4,5.4-5.4c0.4,0,0.7,0,1,0.1L18.2,45
	C17.6,45.9,17.9,47,18.8,47.5z M31,21.2h29.2l-6.7,22.1c-0.3,0-0.6-0.1-0.9-0.1c-0.2,0-0.4,0-0.6,0l-1.2-5.4h1.8
	c0.6,0,1.1-0.5,1.1-1.1s-0.5-1.1-1.1-1.1h-3.2c0,0,0,0,0,0h-3.2c-0.6,0-1.1,0.5-1.1,1.1s0.5,1.1,1.1,1.1h2.3l1.2,5.4l-19-20.4
	L31,21.2z M58.5,47.1c-0.4-0.9-0.9-1.6-1.6-2.2l6.5-21.3l5.3,7.5c-4.2,3.6-6.9,9-6.9,15c0,0.2,0,0.4,0,0.7L58.5,47.1z M81.7,47.8
	C81.7,47.8,81.8,47.8,81.7,47.8c0.1,0,0.2,0,0.3-0.1c0,0,0.1,0,0.1,0c0.1,0,0.1-0.1,0.2-0.1c0,0,0.1,0,0.1-0.1c0,0,0.1,0,0.1,0
	c0,0,0,0,0.1-0.1c0.1,0,0.1-0.1,0.1-0.1c0,0,0.1-0.1,0.1-0.1c0,0,0.1-0.1,0.1-0.1c0-0.1,0.1-0.1,0.1-0.2c0,0,0.1-0.1,0.1-0.2
	c0-0.1,0-0.1,0.1-0.2c0-0.1,0-0.1,0-0.2c0-0.1,0-0.1,0-0.2c0-0.1,0-0.1,0-0.2c0-0.1,0-0.1,0-0.2c0,0,0-0.1,0-0.1c0,0,0,0,0-0.1
	c0-0.1,0-0.1,0-0.2c0-0.1,0-0.1-0.1-0.2c0-0.1,0-0.1-0.1-0.2c0-0.1-0.1-0.1-0.1-0.2c0,0,0,0,0-0.1l-3.9-5.6c0.8-0.3,1.6-0.4,2.4-0.4
	c3.9,0,7.1,3.2,7.1,7.1S85.4,53,81.5,53c-2.9,0-5.5-1.8-6.5-4.4L81.7,47.8z M74.5,45c0.2-1.3,0.7-2.6,1.6-3.5l2.2,3.1L74.5,45z
	 M72.3,45.3l-6.8,0.9c0-0.1,0-0.1,0-0.2c0-4.7,2.1-9,5.3-12l4,5.6C73.3,41.1,72.4,43.1,72.3,45.3z M81.5,62
	c-7.5,0-13.9-5.2-15.6-12.2l6.8-0.9c1.2,3.7,4.7,6.3,8.8,6.3c5.1,0,9.3-4.2,9.3-9.3s-4.2-9.3-9.3-9.3c-1.3,0-2.6,0.3-3.8,0.8l-4-5.6
	c2.3-1.3,4.9-2,7.7-2c8.9,0,16.1,7.2,16.1,16.1S90.4,62,81.5,62z"/>
<g id="XMLID_58_">
	<path id="XMLID_60_" class="st0" d="M219.9,22.9h-39.4l36.6-14.4c0.4-0.1,0.7-0.4,0.8-0.8c0.2-0.4,0.2-0.8,0-1.1l-2.3-5.8
		c-0.3-0.8-1.2-1.1-1.9-0.8L170,17.3c-0.4,0.1-0.7,0.4-0.8,0.8c-0.2,0.4-0.2,0.8,0,1.1l2.2,5.5v5v28.7c0,0.8,0.7,1.5,1.5,1.5h47.1
		c0.8,0,1.5-0.7,1.5-1.5V29.7v-5.3C221.4,23.6,220.8,22.9,219.9,22.9z M218.5,28.2h-44.2v-2.4h44.2V28.2z M218.5,57h-44.2V31.2h44.2
		V57z"/>
	<path id="XMLID_59_" class="st0" d="M193.3,50.9l4.7-2.7l4.7-2.7c1.1-0.6,1.1-2.1,0-2.7l-4.7-2.7l-4.7-2.7
		c-1.1-0.6-2.4,0.2-2.4,1.4v5.5v5.5C191,50.7,192.3,51.5,193.3,50.9z"/>
</g>
<path id="XMLID_54_" class="st0" d="M352.9,39.5c-1.1-2-3-3.5-5.3-3.9c-0.1-4.3-1.2-8.3-2.9-11.9c0.4-0.9,0.3-1.9-0.2-2.8
	c-5.4-9.1-15.4-14.8-26-14.8c-10.6,0-20.6,5.7-26,14.8c-0.5,0.9-0.6,1.9-0.2,2.8c-1.8,3.6-2.8,7.7-2.9,11.9
	c-2.3,0.4-4.2,1.9-5.3,3.9c-2.7,0.4-4.7,2.7-4.7,5.5v11.6c0,2.8,2,5.1,4.7,5.5c1.2,2.4,3.7,4,6.6,4h1.1c4.1,0,7.4-3.3,7.4-7.4V42.9
	c0-3.6-2.6-6.7-6.1-7.3c0.1-3.6,1-7.1,2.5-10.2c0.8-0.2,1.6-0.6,2.1-1.4c4.4-7.3,12.3-11.8,20.8-11.8c8.5,0,16.5,4.5,20.8,11.8
	c0.5,0.8,1.2,1.3,2,1.4c1.5,3.1,2.4,6.5,2.5,10.2c-3.5,0.6-6.1,3.7-6.1,7.3v15.8c0,4.1,3.3,7.4,7.4,7.4h1.1c2.9,0,5.3-1.6,6.6-4
	c2.7-0.4,4.7-2.7,4.7-5.5V45C357.6,42.2,355.6,39.9,352.9,39.5z M295.8,42.9v15.8c0,2.2-1.8,4-4,4h-1.1c-2.2,0-4-1.8-4-4V42.9
	c0-2.2,1.8-4,4-4h1.1C294,39,295.8,40.7,295.8,42.9z M350.3,58.7c0,2.2-1.8,4-4,4h-1.1c-2.2,0-4-1.8-4-4V42.9c0-2.2,1.8-4,4-4h1.1
	c2.2,0,4,1.8,4,4V58.7z"/>
<g id="XMLID_41_">
	<path id="XMLID_45_" class="st0" d="M68.3,133.7c-0.3-0.8-1-1.3-1.9-1.3h-4c-0.9,0-1.6,0.5-1.9,1.3h-5.3v-6.1h3.2
		c0.8,0,1.4-0.6,1.4-1.4V111c0-0.8-0.6-1.4-1.4-1.4H35.3c-0.8,0-1.4,0.6-1.4,1.4v15.2c0,0.8,0.6,1.4,1.4,1.4h4.8v6.1h-6.6
		c-4.7,0-8.5,3.8-8.5,8.5v11v8c0,4.7,3.8,8.5,8.5,8.5h34.3c4.7,0,8.5-3.8,8.5-8.5v-8v-11C76.2,137.7,72.7,134,68.3,133.7z
		 M73.3,142.2v4.6c-1.6-4.8-5.4-8.6-10.3-10.2h4.7C70.8,136.6,73.3,139.1,73.3,142.2z M45.5,151.6c0-7.1,5.8-12.9,12.9-12.9
		c7.1,0,12.9,5.8,12.9,12.9c0,7.1-5.8,12.9-12.9,12.9C51.3,164.5,45.5,158.7,45.5,151.6z M36.7,112.4h20.2v12.3h-3.2H41.5h-4.8
		V112.4z M43,127.6h9.3v6.1H43V127.6z M27.9,142.2c0-3.1,2.5-5.6,5.6-5.6h8.1h12.1c-6.4,2-11,8-11,15c0,0,0,0,0,0.1H27.9V142.2z
		 M27.9,161.1v-6.5h15c1.1,5.7,5.3,10.3,10.7,12.1H33.5C30.4,166.6,27.9,164.2,27.9,161.1z M67.8,166.6h-4.7
		c4.8-1.5,8.7-5.3,10.3-10.2v4.6C73.3,164.2,70.8,166.6,67.8,166.6z"/>
	<circle id="XMLID_44_" class="st0" cx="58.4" cy="151.6" r="10.1"/>
	<circle id="XMLID_43_" class="st0" cx="33.6" cy="141.5" r="2.2"/>
	<path id="XMLID_42_" class="st0" d="M54.6,122.8c0-0.5-0.4-0.9-0.9-0.9h-14V114c0-0.5-0.4-0.9-0.9-0.9c-0.5,0-0.9,0.4-0.9,0.9v8.8
		c0,0.5,0.4,0.9,0.9,0.9h14.9C54.2,123.7,54.6,123.3,54.6,122.8z"/>
</g>
<path id="XMLID_37_" class="st0" d="M214,117.1c-0.7,0-1.4,0.4-1.7,1H195v-3h-7.9v3h-17.6c-0.3-0.6-0.9-1-1.7-1
	c-1,0-1.8,0.8-1.8,1.8c0,1,0.8,1.8,1.8,1.8c0.7,0,1.4-0.4,1.7-1h17.6v3.3h0.4l-12.4,24.8c-0.3,0.6-0.1,1.4,0.5,1.8
	c2.6,1.5,8.9,6.4,10,11.3h-2.9c-0.7,0-1.3,0.6-1.3,1.3v2c0,0.7,0.6,1.3,1.3,1.3h3.3v8.2c0,0.7,0.6,1.3,1.3,1.3h7.3
	c0.7,0,1.3-0.6,1.3-1.3v-8.2h3.4c0.7,0,1.3-0.6,1.3-1.3v-2c0-0.7-0.6-1.3-1.3-1.3h-2.9c1.2-6,9.9-11.3,10-11.3
	c0.6-0.4,0.8-1.1,0.5-1.8L194.6,123h0.4v-3.3h17.3c0.3,0.6,0.9,1,1.7,1c1,0,1.8-0.8,1.8-1.8C215.8,117.9,215,117.1,214,117.1z
	 M193.3,172.4h-4.6v-6.8h4.6V172.4z M193.8,160.9h-5.4c-0.9-6.1-7.6-11.2-10.3-13l12.2-24.4v17.9c-1.6,0.4-2.8,1.8-2.8,3.5
	c0,2,1.6,3.6,3.6,3.6c2,0,3.6-1.6,3.6-3.6c0-1.7-1.2-3.1-2.8-3.5v-17.9l12.2,24.4C201.4,149.7,194.7,154.8,193.8,160.9z"/>
<g id="XMLID_2_">
	<path id="XMLID_34_" class="st0" d="M335.3,145.8h-14.8c0.3-3.7,0-7.2-1-10.6c-4.3-14-18.8-19.2-21.7-20.1
		c-0.6-0.2-1.3,0.2-1.5,0.8c-0.2,0.6,0.2,1.3,0.8,1.5c2.7,0.8,16.1,5.7,20.1,18.5c1,3.1,1.3,6.4,0.9,9.8h-16.3
		c-8.1,0-14.7,6.6-14.7,14.7c0,8.1,6.6,14.7,14.7,14.7c3.8,0,7.3-1.4,10.1-4h13.5c2.7,2.6,6.3,4,10.1,4c8.1,0,14.7-6.6,14.7-14.7
		S343.4,145.8,335.3,145.8z M335.3,172.7c-3.3,0-6.4-1.3-8.7-3.6c-0.2-0.2-0.5-0.4-0.9-0.4h-14.5c-0.3,0-0.6,0.1-0.9,0.4
		c-2.3,2.3-5.4,3.6-8.7,3.6c-6.7,0-12.2-5.5-12.2-12.2c0-6.7,5.5-12.2,12.2-12.2h33.6c6.7,0,12.2,5.5,12.2,12.2
		S342,172.7,335.3,172.7z"/>
	<circle id="XMLID_33_" class="st0" cx="301.7" cy="160.5" r="7.8"/>
	<circle id="XMLID_32_" class="st0" cx="335.4" cy="154.5" r="2.8"/>
	<circle id="XMLID_31_" class="st0" cx="341.3" cy="160.5" r="2.8"/>
	<circle id="XMLID_30_" class="st0" cx="335.5" cy="166.4" r="2.8"/>
	<circle id="XMLID_29_" class="st0" cx="329.5" cy="160.3" r="2.8"/>
</g>
</svg>
