<?xml version="1.0" encoding="utf-8"?>
<!-- Generator: Adobe Illustrator 19.0.0, SVG Export Plug-In . SVG Version: 6.00 Build 0)  -->
<svg version="1.1" id="Capa_1" xmlns="http://www.w3.org/2000/svg" xmlns:xlink="http://www.w3.org/1999/xlink" x="0px" y="0px"
	 viewBox="0 0 262.4 207.3" style="enable-background:new 0 0 262.4 207.3;" xml:space="preserve">
<style type="text/css">
	.st0{fill:#DFDFDF;}
	.st1{fill:#5C3178;}
	.st2{font-family:'Natalia-Regular';}
	.st3{font-size:25px;}
	.st4{fill:#FFFFFF;}
	.st5{font-family:'SourceSansPro-Regular';}
	.st6{font-size:9.642px;}
	.st7{clip-path:url(#XMLID_45_);}
	.st8{clip-path:url(#XMLID_46_);}
	.st9{font-size:19.2839px;}
	.st10{clip-path:url(#XMLID_47_);}
	.st11{clip-path:url(#XMLID_48_);}
</style>
<g id="XMLID_165_">
	
		<rect id="XMLID_70_" x="13.7" y="13.7" transform="matrix(0.7071 0.7071 -0.7071 0.7071 46.8638 -19.4116)" class="st0" width="66.3" height="66.3"/>
</g>
<g id="XMLID_162_">
	
		<rect id="XMLID_68_" x="70.9" y="70.6" transform="matrix(0.7071 0.7071 -0.7071 0.7071 103.8429 -43.1912)" class="st0" width="66.3" height="66.3"/>
</g>
<g id="XMLID_159_">
	
		<rect id="XMLID_66_" x="126.7" y="13.7" transform="matrix(0.7071 0.7071 -0.7071 0.7071 79.9641 -99.3228)" class="st0" width="66.3" height="66.3"/>
</g>
<text id="XMLID_158_" transform="matrix(1 0 0 1 92.1589 103.5077)" class="st1 st2 st3">Lr</text>
<polygon id="XMLID_157_" class="st1" points="18.8,28.1 0,46.9 46.9,93.7 93.7,46.9 74.9,28.1 "/>
<rect id="XMLID_156_" x="14.2" y="127.3" transform="matrix(0.7071 0.7071 -0.7071 0.7071 127.3361 13.5265)" class="st0" width="66.3" height="66.3"/>
<polygon id="XMLID_155_" class="st1" points="83.7,149.9 11,149.9 0.5,160.5 47.3,207.3 94.2,160.5 "/>
<polygon id="XMLID_154_" class="st1" points="57.5,103.4 57.2,103.8 104.1,150.6 150.9,103.8 150.6,103.4 "/>
<text id="XMLID_153_" transform="matrix(1 0 0 1 31.9888 48.1086)" class="st4 st2 st3">Ps</text>
<g id="XMLID_150_">
	<text id="XMLID_134_" transform="matrix(1 0 0 1 25.3306 59.7673)" class="st4 st5 st6">Photoshop</text>
</g>
<polygon id="XMLID_149_" class="st1" points="131.8,28.1 113,46.9 159.9,93.7 206.7,46.9 187.9,28.1 "/>
<text id="XMLID_148_" transform="matrix(1 0 0 1 147.1763 47.8283)" class="st4 st2 st3">Ai</text>
<g id="XMLID_145_">
	<text id="XMLID_138_" transform="matrix(1 0 0 1 139.8452 59.487)" class="st4 st5 st6">Illustrator</text>
</g>
<g id="XMLID_140_">
	<defs>
		<polygon id="XMLID_141_" points="57.5,103.4 57.2,103.8 104.1,150.6 150.9,103.8 150.6,103.4 		"/>
	</defs>
	<clipPath id="XMLID_45_">
		<use xlink:href="#XMLID_141_"  style="overflow:visible;"/>
	</clipPath>
	<g id="XMLID_142_" class="st7">
		<text id="XMLID_143_" transform="matrix(1 0 0 1 92.1589 103.5077)" class="st4 st2 st3">Lr</text>
	</g>
</g>
<g id="XMLID_137_">
	<text id="XMLID_146_" transform="matrix(1 0 0 1 82.0104 115.1664)" class="st4 st5 st6">LightRoom</text>
</g>
<text id="XMLID_136_" transform="matrix(1 0 0 1 41.3223 159.144)" class="st1 st2 st3">5</text>
<g id="XMLID_133_">
	<text id="XMLID_151_" transform="matrix(1 0 0 1 36.1895 170.8027)" class="st4 st5 st6">Html5</text>
</g>
<g id="XMLID_130_">
	
		<rect id="XMLID_54_" x="182.4" y="70.6" transform="matrix(0.7071 0.7071 -0.7071 0.7071 136.4807 -121.9858)" class="st0" width="66.3" height="66.3"/>
</g>
<text id="XMLID_129_" transform="matrix(1 0 0 1 207.7534 103.5077)" class="st1 st2 st3">S</text>
<polygon id="XMLID_128_" class="st1" points="168.9,103.4 168.6,103.8 215.5,150.6 262.4,103.8 262,103.4 "/>
<g id="XMLID_125_">
	<defs>
		<polygon id="XMLID_126_" points="168.9,103.4 168.6,103.8 215.5,150.6 262.4,103.8 262,103.4 		"/>
	</defs>
	<clipPath id="XMLID_46_">
		<use xlink:href="#XMLID_126_"  style="overflow:visible;"/>
	</clipPath>
	<g id="XMLID_127_" class="st8">
		<text transform="matrix(1 0 0 1 209.5542 103.5077)" class="st4 st2 st9">S</text>
	</g>
</g>
<g id="XMLID_71_">
	<text id="XMLID_160_" transform="matrix(1 0 0 1 190.2466 115.1664)" class="st4 st5 st6">SublimeText</text>
</g>
<g id="XMLID_60_">
	<defs>
		<polygon id="XMLID_64_" points="83.7,149.9 11,149.9 0.5,160.5 47.3,207.3 94.2,160.5 		"/>
	</defs>
	<clipPath id="XMLID_47_">
		<use xlink:href="#XMLID_64_"  style="overflow:visible;"/>
	</clipPath>
	<g id="XMLID_65_" class="st10">
		<text id="XMLID_163_" transform="matrix(1 0 0 1 41.3223 159.144)" class="st4 st2 st3">5</text>
	</g>
</g>
<rect id="XMLID_58_" x="126.7" y="127.3" transform="matrix(0.7071 0.7071 -0.7071 0.7071 160.2969 -66.0479)" class="st0" width="66.3" height="66.3"/>
<polygon id="XMLID_56_" class="st1" points="196.2,149.9 123.5,149.9 113,160.5 159.9,207.3 206.7,160.5 "/>
<text id="XMLID_37_" transform="matrix(1 0 0 1 153.8701 159.144)" class="st1 st2 st3">3</text>
<g id="XMLID_34_">
	<text id="XMLID_164_" transform="matrix(1 0 0 1 151.9307 170.8027)" class="st4 st5 st6">Css3</text>
</g>
<g id="XMLID_29_">
	<defs>
		<polygon id="XMLID_30_" points="196.2,149.9 123.5,149.9 113,160.5 159.9,207.3 206.7,160.5 		"/>
	</defs>
	<clipPath id="XMLID_48_">
		<use xlink:href="#XMLID_30_"  style="overflow:visible;"/>
	</clipPath>
	<g id="XMLID_31_" class="st11">
		<text id="XMLID_166_" transform="matrix(1 0 0 1 153.8701 159.144)" class="st4 st2 st3">3</text>
	</g>
</g>
</svg>
